<svg width="24" height="24" viewBox="0 0 24 24" fill="none" xmlns="http://www.w3.org/2000/svg">
<path d="M2.52903 14.7739C2.31603 16.1679 3.26703 17.1349 4.43103 17.6169C8.89403 19.4669 15.104 19.4669 19.567 17.6169C20.731 17.1349 21.682 16.1669 21.469 14.7739C21.339 13.9169 20.692 13.2039 20.213 12.5069C19.586 11.5829 19.524 10.5759 19.523 9.50391C19.524 5.36191 16.156 2.00391 11.999 2.00391C7.84203 2.00391 4.47403 5.36191 4.47403 9.50391C4.47403 10.5759 4.41203 11.5839 3.78403 12.5069C3.30603 13.2039 2.66003 13.9169 2.52903 14.7739Z" stroke="#CCCDD3" stroke-width="1.5" stroke-linecap="round" stroke-linejoin="round"/>
<path d="M7.99902 19.0059C8.45702 20.7309 10.075 22.0059 11.999 22.0059C13.924 22.0059 15.54 20.7309 15.999 19.0059" stroke="#CCCDD3" stroke-width="1.5" stroke-linecap="round" stroke-linejoin="round"/>
</svg>
