<svg width="18" height="19" viewBox="0 0 18 19" fill="none" xmlns="http://www.w3.org/2000/svg">
<path d="M10.2 0.65C9.85381 0.390356 9.43274 0.25 9 0.25C8.56726 0.25 8.14619 0.390356 7.8 0.65L0.8 5.9C0.551608 6.08629 0.350001 6.32786 0.211146 6.60557C0.0722902 6.88328 0 7.18951 0 7.5V17C0 17.5304 0.210714 18.0391 0.585786 18.4142C0.960859 18.7893 1.46957 19 2 19H5.9C6.19174 19 6.47153 18.8841 6.67782 18.6778C6.88411 18.4715 7 18.1917 7 17.9V13C7 12.4696 7.21071 11.9609 7.58579 11.5858C7.96086 11.2107 8.46957 11 9 11C9.53043 11 10.0391 11.2107 10.4142 11.5858C10.7893 11.9609 11 12.4696 11 13V17.9C11 18.1917 11.1159 18.4715 11.3222 18.6778C11.5285 18.8841 11.8083 19 12.1 19H16C16.5304 19 17.0391 18.7893 17.4142 18.4142C17.7893 18.0391 18 17.5304 18 17V7.5C18 7.18951 17.9277 6.88328 17.7889 6.60557C17.65 6.32786 17.4484 6.08629 17.2 5.9L10.2 0.65Z" fill="#85BB65"/>
</svg>
