<svg width="25" height="24" viewBox="0 0 25 24" fill="none" xmlns="http://www.w3.org/2000/svg">
<g clip-path="url(#clip0_2219_2389)">
<path d="M12.25 13C14.646 13 16.825 13.694 18.428 14.672C19.228 15.16 19.912 15.736 20.406 16.362C20.892 16.977 21.25 17.713 21.25 18.5C21.25 19.345 20.839 20.011 20.247 20.486C19.687 20.936 18.948 21.234 18.163 21.442C16.585 21.859 14.479 22 12.25 22C10.021 22 7.915 21.86 6.337 21.442C5.552 21.234 4.813 20.936 4.253 20.486C3.66 20.01 3.25 19.345 3.25 18.5C3.25 17.713 3.608 16.977 4.094 16.361C4.588 15.736 5.271 15.161 6.072 14.671C7.675 13.695 9.855 13 12.25 13ZM12.25 2C13.5761 2 14.8479 2.52678 15.7855 3.46447C16.7232 4.40215 17.25 5.67392 17.25 7C17.25 8.32608 16.7232 9.59785 15.7855 10.5355C14.8479 11.4732 13.5761 12 12.25 12C10.9239 12 9.65215 11.4732 8.71447 10.5355C7.77678 9.59785 7.25 8.32608 7.25 7C7.25 5.67392 7.77678 4.40215 8.71447 3.46447C9.65215 2.52678 10.9239 2 12.25 2Z" fill="#85BB65"/>
</g>
<defs>
<clipPath id="clip0_2219_2389">
<rect width="24" height="24" fill="white" transform="translate(0.25)"/>
</clipPath>
</defs>
</svg>
