<svg width="25" height="24" viewBox="0 0 25 24" fill="none" xmlns="http://www.w3.org/2000/svg">
<g clip-path="url(#clip0_2219_2642)">
<path fill-rule="evenodd" clip-rule="evenodd" d="M19.75 4.98853V5.99953C20.2804 5.99953 20.7891 6.21024 21.1642 6.58531C21.5393 6.96039 21.75 7.46909 21.75 7.99953V17.9995C21.75 18.53 21.5393 19.0387 21.1642 19.4137C20.7891 19.7888 20.2804 19.9995 19.75 19.9995H5.75C5.21957 19.9995 4.71086 19.7888 4.33579 19.4137C3.96071 19.0387 3.75 18.53 3.75 17.9995V7.99953C3.75 6.95453 4.585 6.00653 5.563 5.72753L16.563 2.58453C16.9351 2.47818 17.3268 2.45967 17.7073 2.53045C18.0877 2.60123 18.4466 2.75938 18.7555 2.99242C19.0645 3.22547 19.3151 3.52706 19.4877 3.87344C19.6602 4.21982 19.75 4.60154 19.75 4.98853ZM16.25 11.4995C15.8522 11.4995 15.4706 11.6576 15.1893 11.9389C14.908 12.2202 14.75 12.6017 14.75 12.9995C14.75 13.3974 14.908 13.7789 15.1893 14.0602C15.4706 14.3415 15.8522 14.4995 16.25 14.4995C16.6478 14.4995 17.0294 14.3415 17.3107 14.0602C17.592 13.7789 17.75 13.3974 17.75 12.9995C17.75 12.6017 17.592 12.2202 17.3107 11.9389C17.0294 11.6576 16.6478 11.4995 16.25 11.4995ZM17.75 4.98853C17.7501 4.91794 17.7352 4.84814 17.7063 4.78372C17.6774 4.71931 17.6353 4.66173 17.5826 4.61478C17.5298 4.56783 17.4678 4.53258 17.4005 4.51133C17.3332 4.49009 17.2621 4.48334 17.192 4.49153L17.112 4.50753L11.89 5.99953H17.75V4.98853Z" fill="#85BB65"/>
</g>
<defs>
<clipPath id="clip0_2219_2642">
<rect width="24" height="24" fill="white" transform="translate(0.75)"/>
</clipPath>
</defs>
</svg>
