<svg width="25" height="24" viewBox="0 0 25 24" fill="none" xmlns="http://www.w3.org/2000/svg">
<path d="M4.21304 11.1629L6.89104 12.9669C7.89704 13.6449 7.22504 15.214 6.04104 14.9539L4.97704 14.7199C5.51733 16.2148 6.49058 17.5149 7.77268 18.4544C9.05478 19.3939 10.5876 19.9303 12.1758 19.9953C13.764 20.0602 15.3355 19.6506 16.69 18.8188C18.0445 17.987 19.1206 16.7707 19.781 15.3249C19.8946 15.0896 20.0957 14.908 20.3415 14.8191C20.5872 14.7301 20.858 14.7409 21.0958 14.8492C21.3337 14.9574 21.5198 15.1544 21.6142 15.3981C21.7086 15.6418 21.7039 15.9127 21.601 16.1529C19.614 20.5229 14.705 22.9459 9.91404 21.6619C7.80026 21.0956 5.93052 19.8518 4.59138 18.1211C3.25224 16.3903 2.51759 14.2682 2.50004 12.0799C2.49304 11.1769 3.49604 10.6779 4.21304 11.1619M12.5 5.99995C12.745 5.99998 12.9814 6.0899 13.1644 6.25266C13.3474 6.41542 13.4644 6.6397 13.493 6.88295L13.5 6.99995V7.99995H15.5C15.7549 8.00023 16.0001 8.09783 16.1854 8.2728C16.3707 8.44777 16.4823 8.6869 16.4972 8.94134C16.5121 9.19579 16.4294 9.44633 16.2658 9.64178C16.1022 9.83723 15.8701 9.96285 15.617 9.99295L15.5 9.99995H10.5C10.3751 9.99972 10.2546 10.0463 10.1623 10.1305C10.0699 10.2146 10.0125 10.3303 10.0012 10.4548C9.98987 10.5792 10.0256 10.7034 10.1013 10.8028C10.1769 10.9022 10.2871 10.9697 10.41 10.9919L10.5 10.9999H14.5C15.1499 10.9984 15.7749 11.2499 16.2425 11.7013C16.71 12.1527 16.9834 12.7684 17.0048 13.4179C17.0261 14.0674 16.7936 14.6998 16.3567 15.1808C15.9197 15.6619 15.3126 15.9539 14.664 15.9949L14.5 15.9999H13.5V16.9999C13.4998 17.2548 13.4022 17.5 13.2272 17.6853C13.0522 17.8707 12.8131 17.9822 12.5586 17.9971C12.3042 18.0121 12.0537 17.9293 11.8582 17.7657C11.6628 17.6021 11.5371 17.37 11.507 17.117L11.5 16.9999V15.9999H9.50004C9.24516 15.9997 9 15.9021 8.81467 15.7271C8.62933 15.5521 8.5178 15.313 8.50286 15.0586C8.48793 14.8041 8.57071 14.5536 8.7343 14.3581C8.89789 14.1627 9.12994 14.0371 9.38304 14.0069L9.50004 13.9999H14.5C14.625 14.0002 14.7455 13.9536 14.8378 13.8694C14.9302 13.7853 14.9876 13.6696 14.9989 13.5451C15.0102 13.4207 14.9745 13.2965 14.8988 13.1971C14.8231 13.0977 14.713 13.0302 14.59 13.0079L14.5 12.9999H10.5C9.85015 13.0015 9.22519 12.75 8.75762 12.2986C8.29005 11.8472 8.01663 11.2315 7.9953 10.582C7.97397 9.93246 8.20642 9.30014 8.64338 8.81907C9.08033 8.33801 9.68745 8.046 10.336 8.00495L10.5 7.99995H11.5V6.99995C11.5 6.73473 11.6054 6.48038 11.7929 6.29284C11.9805 6.10531 12.2348 5.99995 12.5 5.99995ZM15.09 2.34295C17.2037 2.90907 19.0734 4.15273 20.4126 5.88329C21.7517 7.61386 22.4864 9.73583 22.504 11.9239C22.511 12.8269 21.509 13.3259 20.792 12.8419L18.114 11.0379C17.107 10.3599 17.779 8.79095 18.964 9.05095L20.027 9.28495C19.4867 7.7901 18.5135 6.49003 17.2314 5.55049C15.9493 4.61096 14.4164 4.07455 12.8283 4.00964C11.2401 3.94474 9.66857 4.35429 8.31408 5.18607C6.95959 6.01785 5.88351 7.23417 5.22304 8.67995C5.17061 8.80241 5.09424 8.91316 4.99842 9.0057C4.9026 9.09824 4.78926 9.1707 4.66504 9.21883C4.54083 9.26696 4.40825 9.28979 4.2751 9.28597C4.14194 9.28216 4.01089 9.25178 3.88964 9.19661C3.76838 9.14145 3.65937 9.06262 3.56901 8.96474C3.47864 8.86687 3.40874 8.75192 3.36342 8.62666C3.31809 8.5014 3.29824 8.36834 3.30505 8.23531C3.31185 8.10227 3.34516 7.97193 3.40304 7.85195C5.39004 3.48195 10.3 1.05995 15.09 2.34295Z" fill="#85BB65"/>
</svg>
