<svg width="102" height="114" viewBox="0 0 102 114" fill="none" xmlns="http://www.w3.org/2000/svg">
<path fill-rule="evenodd" clip-rule="evenodd" d="M63.92 0.333985C66.2986 0.334601 68.6168 1.0836 70.5461 2.47489C72.4754 3.86619 73.918 5.82924 74.6697 8.08599L77.7467 17.334H96.3333C97.8362 17.334 99.2776 17.931 100.34 18.9937C101.403 20.0564 102 21.4978 102 23.0007C102 24.5035 101.403 25.9449 100.34 27.0076C99.2776 28.0703 97.8362 28.6673 96.3333 28.6673L96.3163 29.0697L91.4033 97.88C91.0967 102.167 89.1773 106.18 86.0315 109.109C82.8857 112.038 78.7471 113.667 74.4487 113.667H27.5513C23.2529 113.667 19.1143 112.038 15.9685 109.109C12.8227 106.18 10.9033 102.167 10.5967 97.88L5.68367 29.064C5.67341 28.932 5.66774 28.7997 5.66667 28.6673C4.16377 28.6673 2.72243 28.0703 1.65973 27.0076C0.597022 25.9449 0 24.5035 0 23.0007C0 21.4978 0.597022 20.0564 1.65973 18.9937C2.72243 17.931 4.16377 17.334 5.66667 17.334H24.2533L27.3303 8.08599C28.0823 5.82832 29.5258 3.86461 31.4562 2.47324C33.3867 1.08186 35.7061 0.333412 38.0857 0.333985H63.92ZM34 45.6673C32.612 45.6675 31.2724 46.1771 30.2352 47.0994C29.198 48.0217 28.5354 49.2926 28.373 50.671L28.3333 51.334V85.334C28.3349 86.7783 28.888 88.1675 29.8795 89.2177C30.871 90.268 32.2261 90.9 33.6679 90.9846C35.1097 91.0693 36.5295 90.6002 37.6371 89.6732C38.7446 88.7461 39.4564 87.4312 39.627 85.997L39.6667 85.334V51.334C39.6667 49.8311 39.0696 48.3898 38.0069 47.327C36.9442 46.2643 35.5029 45.6673 34 45.6673ZM68 45.6673C66.4971 45.6673 65.0558 46.2643 63.9931 47.327C62.9304 48.3898 62.3333 49.8311 62.3333 51.334V85.334C62.3333 86.8369 62.9304 88.2782 63.9931 89.3409C65.0558 90.4036 66.4971 91.0007 68 91.0007C69.5029 91.0007 70.9442 90.4036 72.0069 89.3409C73.0696 88.2782 73.6667 86.8369 73.6667 85.334V51.334C73.6667 49.8311 73.0696 48.3898 72.0069 47.327C70.9442 46.2643 69.5029 45.6673 68 45.6673ZM63.92 11.6673H38.08L36.193 17.334H65.807L63.92 11.6673Z" fill="#FF4C51"/>
</svg>
