<svg width="25" height="24" viewBox="0 0 25 24" fill="none" xmlns="http://www.w3.org/2000/svg">
<path fill-rule="evenodd" clip-rule="evenodd" d="M14.5352 2.80822C14.9052 2.54222 15.4252 2.41822 15.9362 2.60522C17.0226 3.00321 18.0316 3.58688 18.9182 4.33022C19.3352 4.68022 19.4882 5.19122 19.4422 5.64322C19.3672 6.39622 19.4992 7.12322 19.8622 7.74922C20.1822 8.30622 20.6642 8.74622 21.2522 9.05622L21.4772 9.16622C21.8912 9.35322 22.2592 9.74222 22.3522 10.2792C22.5497 11.4174 22.5497 12.5811 22.3522 13.7192C22.2692 14.2032 21.9622 14.5662 21.5992 14.7702L21.4772 14.8332C20.7872 15.1432 20.2232 15.6232 19.8612 16.2492C19.4992 16.8762 19.3672 17.6022 19.4422 18.3552C19.4872 18.8072 19.3352 19.3192 18.9182 19.6682C18.0316 20.4116 17.0226 20.9952 15.9362 21.3932C15.704 21.4763 15.455 21.5012 15.2109 21.4658C14.9669 21.4304 14.7352 21.3358 14.5362 21.1902C13.9202 20.7492 13.2232 20.4992 12.5002 20.4992C11.7772 20.4992 11.0802 20.7482 10.4652 21.1902C10.266 21.336 10.0342 21.4307 9.78994 21.4661C9.5457 21.5015 9.29651 21.4765 9.06417 21.3932C7.97777 20.9953 6.96877 20.4116 6.08217 19.6682C5.89439 19.5087 5.74848 19.3056 5.65715 19.0768C5.56582 18.8479 5.53184 18.6002 5.55817 18.3552C5.63317 17.6022 5.50017 16.8752 5.13817 16.2492C4.80847 15.6903 4.3263 15.2369 3.74817 14.9422L3.52317 14.8322C3.29752 14.7323 3.09978 14.5786 2.94725 14.3845C2.79472 14.1905 2.69203 13.9621 2.64817 13.7192C2.45061 12.5811 2.45061 11.4174 2.64817 10.2792C2.73117 9.79522 3.03817 9.43222 3.40117 9.22822L3.52317 9.16622C4.21317 8.85522 4.77717 8.37622 5.13917 7.74922C5.50017 7.12322 5.63317 6.39622 5.55817 5.64322C5.53184 5.39823 5.56582 5.15052 5.65715 4.92166C5.74848 4.69281 5.89439 4.48977 6.08217 4.33022C6.96878 3.58688 7.97778 3.00321 9.06417 2.60522C9.29638 2.52226 9.54536 2.49738 9.7894 2.53277C10.0334 2.56815 10.2651 2.66272 10.4642 2.80822C11.0792 3.25022 11.7762 3.49922 12.5002 3.49922C13.2242 3.49922 13.9202 3.25022 14.5352 2.80822ZM15.4922 4.57722C14.6262 5.14722 13.6052 5.49922 12.5002 5.49922C11.3952 5.49922 10.3742 5.14622 9.50817 4.57722C8.81201 4.85823 8.15892 5.23594 7.56817 5.69922C7.62817 6.73222 7.42317 7.79222 6.87117 8.74922C6.31817 9.70522 5.50317 10.4122 4.57817 10.8772C4.47396 11.6209 4.47396 12.3755 4.57817 13.1192C5.50317 13.5842 6.31817 14.2912 6.87117 15.2492C7.42317 16.2042 7.62817 17.2642 7.56817 18.2972C8.15886 18.7609 8.81195 19.1389 9.50817 19.4202C10.3742 18.8502 11.3952 18.4982 12.5002 18.4982C13.6052 18.4982 14.6262 18.8512 15.4922 19.4202C16.1883 19.1392 16.8414 18.7615 17.4322 18.2982C17.3722 17.2642 17.5772 16.2042 18.1292 15.2482C18.6812 14.2912 19.4972 13.5842 20.4222 13.1182C20.5264 12.3752 20.5264 11.6213 20.4222 10.8782C19.4972 10.4122 18.6822 9.70522 18.1292 8.74822C17.5772 7.79222 17.3722 6.73222 17.4322 5.69822C16.8414 5.23494 16.1883 4.85823 15.4922 4.57722ZM12.5002 7.99922C13.561 7.99922 14.5785 8.42065 15.3286 9.1708C16.0787 9.92094 16.5002 10.9384 16.5002 11.9992C16.5002 13.0601 16.0787 14.0775 15.3286 14.8277C14.5785 15.5778 13.561 15.9992 12.5002 15.9992C11.4393 15.9992 10.4219 15.5778 9.67175 14.8277C8.9216 14.0775 8.50017 13.0601 8.50017 11.9992C8.50017 10.9384 8.9216 9.92094 9.67175 9.1708C10.4219 8.42065 11.4393 7.99922 12.5002 7.99922ZM12.5002 9.99922C11.9697 9.99922 11.461 10.2099 11.086 10.585C10.7109 10.9601 10.5002 11.4688 10.5002 11.9992C10.5002 12.5297 10.7109 13.0384 11.086 13.4134C11.461 13.7885 11.9697 13.9992 12.5002 13.9992C13.0306 13.9992 13.5393 13.7885 13.9144 13.4134C14.2895 13.0384 14.5002 12.5297 14.5002 11.9992C14.5002 11.4688 14.2895 10.9601 13.9144 10.585C13.5393 10.2099 13.0306 9.99922 12.5002 9.99922Z" fill="white" fill-opacity="0.9"/>
</svg>
