<svg width="25" height="24" viewBox="0 0 25 24" fill="none" xmlns="http://www.w3.org/2000/svg">
<path fill-rule="evenodd" clip-rule="evenodd" d="M10.4651 2.80892C10.266 2.66325 10.0341 2.56858 9.78989 2.53319C9.54566 2.49781 9.29649 2.52278 9.06414 2.60592C7.97775 3.0039 6.96875 3.58757 6.08214 4.33092C5.8943 4.4904 5.74833 4.69344 5.657 4.92231C5.56566 5.15117 5.53172 5.39892 5.55814 5.64392C5.63314 6.39692 5.50014 7.12392 5.13814 7.74992C4.77714 8.37691 4.21314 8.85592 3.52314 9.16691C3.29749 9.26687 3.09975 9.42057 2.94722 9.61459C2.79469 9.80861 2.692 10.037 2.64814 10.2799C2.45062 11.4181 2.45062 12.5818 2.64814 13.7199C2.74114 14.2569 3.10814 14.6459 3.52314 14.8339C4.21314 15.1439 4.77714 15.6239 5.13914 16.2499C5.50014 16.8769 5.63314 17.6029 5.55814 18.3559C5.51314 18.8079 5.66514 19.3199 6.08214 19.6689C6.96874 20.4123 7.97774 20.996 9.06414 21.3939C9.29634 21.477 9.54534 21.5019 9.78939 21.4665C10.0334 21.4311 10.2651 21.3365 10.4641 21.1909C11.0791 20.7489 11.7761 20.4999 12.5001 20.4999C13.2241 20.4999 13.9201 20.7489 14.5351 21.1909C14.9051 21.4569 15.4251 21.5809 15.9361 21.3939C17.0225 20.9959 18.0315 20.4123 18.9181 19.6689C19.3351 19.3199 19.4881 18.8089 19.4421 18.3559C19.3671 17.6029 19.4991 16.8759 19.8621 16.2499C20.2231 15.6229 20.7871 15.1449 21.4771 14.8339C21.8911 14.6469 22.2591 14.2569 22.3521 13.7199C22.5496 12.5817 22.5496 11.4181 22.3521 10.2799C22.3083 10.037 22.2056 9.80861 22.0531 9.61459C21.9005 9.42057 21.7028 9.26687 21.4771 9.16691C20.7871 8.85592 20.2231 8.37691 19.8611 7.74992C19.4991 7.12392 19.3671 6.39692 19.4421 5.64392C19.4685 5.39892 19.4345 5.15121 19.3432 4.92235C19.2518 4.6935 19.1059 4.49046 18.9181 4.33092C18.0315 3.58757 17.0225 3.0039 15.9361 2.60592C15.7039 2.52295 15.455 2.49807 15.2109 2.53346C14.9669 2.56884 14.7352 2.66341 14.5361 2.80892C13.9201 3.24992 13.2231 3.49992 12.5001 3.49992C11.7771 3.49992 11.0801 3.25092 10.4651 2.80892ZM9.50014 11.9999C9.50014 11.2043 9.81621 10.4412 10.3788 9.87859C10.9414 9.31599 11.7045 8.99992 12.5001 8.99992C13.2958 8.99992 14.0589 9.31599 14.6215 9.87859C15.1841 10.4412 15.5001 11.2043 15.5001 11.9999C15.5001 12.7956 15.1841 13.5586 14.6215 14.1212C14.0589 14.6838 13.2958 14.9999 12.5001 14.9999C11.7045 14.9999 10.9414 14.6838 10.3788 14.1212C9.81621 13.5586 9.50014 12.7956 9.50014 11.9999Z" fill="#85BB65"/>
</svg>
