<svg width="114" height="114" viewBox="0 0 114 114" fill="none" xmlns="http://www.w3.org/2000/svg">
<path d="M57.0026 0.333984C88.2996 0.333984 113.669 25.7037 113.669 57.0006C113.669 88.2976 88.2996 113.667 57.0026 113.667C25.7056 113.667 0.335938 88.2976 0.335938 57.0006C0.335938 25.7037 25.7056 0.333984 57.0026 0.333984ZM77.0343 36.493L48.9843 64.543L36.9709 52.524C36.4448 51.9975 35.8202 51.5798 35.1326 51.2947C34.445 51.0096 33.7081 50.8628 32.9638 50.8625C31.4606 50.862 30.0187 51.4586 28.9554 52.5212C27.8921 53.5837 27.2945 55.0251 27.294 56.5283C27.2934 58.0315 27.8901 59.4734 28.9526 60.5366L44.5813 76.1653C45.1601 76.7444 45.8474 77.2038 46.6039 77.5173C47.3603 77.8307 48.1711 77.9921 48.9899 77.9921C49.8088 77.9921 50.6196 77.8307 51.376 77.5173C52.1325 77.2038 52.8197 76.7444 53.3986 76.1653L85.0526 44.5113C86.1159 43.448 86.7132 42.0059 86.7132 40.5022C86.7132 38.9984 86.1159 37.5563 85.0526 36.493C83.9893 35.4297 82.5472 34.8323 81.0434 34.8323C79.5397 34.8323 78.0976 35.4297 77.0343 36.493Z" fill="#85BB65"/>
</svg>
