<svg width="25" height="24" viewBox="0 0 25 24" fill="none" xmlns="http://www.w3.org/2000/svg">
<g clip-path="url(#clip0_2219_3492)">
<path fill-rule="evenodd" clip-rule="evenodd" d="M12.25 13C14.646 13 16.825 13.694 18.428 14.672C19.228 15.16 19.912 15.736 20.406 16.362C20.892 16.977 21.25 17.713 21.25 18.5C21.25 19.345 20.839 20.011 20.247 20.486C19.687 20.936 18.948 21.234 18.163 21.442C16.585 21.859 14.479 22 12.25 22C10.021 22 7.915 21.86 6.337 21.442C5.552 21.234 4.813 20.936 4.253 20.486C3.66 20.01 3.25 19.345 3.25 18.5C3.25 17.713 3.608 16.977 4.094 16.361C4.588 15.736 5.271 15.161 6.072 14.671C7.675 13.695 9.855 13 12.25 13ZM12.25 15C10.227 15 8.407 15.59 7.114 16.379C6.467 16.773 5.979 17.201 5.664 17.601C5.34 18.011 5.25 18.321 5.25 18.5C5.25 18.622 5.287 18.751 5.505 18.926C5.754 19.126 6.187 19.333 6.849 19.508C8.167 19.858 10.061 20 12.25 20C14.44 20 16.333 19.857 17.65 19.508C18.313 19.333 18.746 19.126 18.995 18.926C19.213 18.751 19.25 18.622 19.25 18.5C19.25 18.32 19.16 18.011 18.837 17.601C18.521 17.201 18.033 16.773 17.386 16.379C16.093 15.589 14.273 15 12.25 15ZM12.25 2C13.5761 2 14.8479 2.52678 15.7855 3.46447C16.7232 4.40215 17.25 5.67392 17.25 7C17.25 8.32608 16.7232 9.59785 15.7855 10.5355C14.8479 11.4732 13.5761 12 12.25 12C10.9239 12 9.65215 11.4732 8.71447 10.5355C7.77678 9.59785 7.25 8.32608 7.25 7C7.25 5.67392 7.77678 4.40215 8.71447 3.46447C9.65215 2.52678 10.9239 2 12.25 2ZM12.25 4C11.856 4 11.4659 4.0776 11.1019 4.22836C10.738 4.37913 10.4073 4.6001 10.1287 4.87868C9.8501 5.15726 9.62913 5.48797 9.47836 5.85195C9.3276 6.21593 9.25 6.60603 9.25 7C9.25 7.39397 9.3276 7.78407 9.47836 8.14805C9.62913 8.51203 9.8501 8.84274 10.1287 9.12132C10.4073 9.3999 10.738 9.62087 11.1019 9.77164C11.4659 9.9224 11.856 10 12.25 10C13.0456 10 13.8087 9.68393 14.3713 9.12132C14.9339 8.55871 15.25 7.79565 15.25 7C15.25 6.20435 14.9339 5.44129 14.3713 4.87868C13.8087 4.31607 13.0456 4 12.25 4Z" fill="white" fill-opacity="0.9"/>
</g>
<defs>
<clipPath id="clip0_2219_3492">
<rect width="24" height="24" fill="white" transform="translate(0.25)"/>
</clipPath>
</defs>
</svg>
