<svg width="25" height="24" viewBox="0 0 25 24" fill="none" xmlns="http://www.w3.org/2000/svg">
<path d="M17.75 13C17.75 13.3978 17.592 13.7794 17.3107 14.0607C17.0294 14.342 16.6478 14.5 16.25 14.5C15.8522 14.5 15.4706 14.342 15.1893 14.0607C14.908 13.7794 14.75 13.3978 14.75 13C14.75 12.6022 14.908 12.2206 15.1893 11.9393C15.4706 11.658 15.8522 11.5 16.25 11.5C16.6478 11.5 17.0294 11.658 17.3107 11.9393C17.592 12.2206 17.75 12.6022 17.75 13Z" fill="white" fill-opacity="0.9"/>
<path fill-rule="evenodd" clip-rule="evenodd" d="M5.563 5.72753L16.563 2.58453C16.9351 2.47818 17.3268 2.45967 17.7073 2.53045C18.0877 2.60123 18.4466 2.75938 18.7555 2.99242C19.0645 3.22547 19.3151 3.52706 19.4877 3.87344C19.6602 4.21982 19.75 4.60154 19.75 4.98853V5.99953C20.2804 5.99953 20.7891 6.21024 21.1642 6.58531C21.5393 6.96039 21.75 7.46909 21.75 7.99953V17.9995C21.75 18.53 21.5393 19.0387 21.1642 19.4137C20.7891 19.7888 20.2804 19.9995 19.75 19.9995H5.75C5.21957 19.9995 4.71086 19.7888 4.33579 19.4137C3.96071 19.0387 3.75 18.53 3.75 17.9995V7.99953C3.75 6.95453 4.585 6.00653 5.563 5.72753ZM17.113 4.50753C17.1873 4.48635 17.2656 4.48269 17.3415 4.49684C17.4175 4.51099 17.4892 4.54256 17.5509 4.58907C17.6126 4.63558 17.6627 4.69577 17.6973 4.7649C17.7318 4.83404 17.7499 4.91024 17.75 4.98753V5.99953H11.89L17.113 4.50753ZM5.75 7.99953H19.75V17.9995H5.75V7.99953Z" fill="white" fill-opacity="0.9"/>
</svg>
