<svg width="18" height="17" viewBox="0 0 18 17" fill="none" xmlns="http://www.w3.org/2000/svg">
<path fill-rule="evenodd" clip-rule="evenodd" d="M2.3336 7.99879C2.33273 6.64439 2.80318 5.33189 3.66425 4.28644C4.52532 3.24099 5.72334 2.52775 7.05281 2.26907C8.38228 2.01039 9.76034 2.22239 10.9506 2.86871C12.1408 3.51503 13.0691 4.55538 13.5761 5.81129C13.66 6.01471 13.8209 6.17668 14.0238 6.26188C14.2267 6.34708 14.455 6.34859 14.659 6.26607C14.863 6.18356 15.026 6.02372 15.1126 5.82143C15.1992 5.61914 15.2022 5.39083 15.1211 5.18629C14.7356 4.22519 14.1554 3.35429 13.4169 2.62842C12.6784 1.90254 11.7976 1.3374 10.83 0.968577C9.86235 0.599752 8.82887 0.435228 7.79456 0.48536C6.76026 0.535492 5.74753 0.799194 4.82012 1.25987C3.89272 1.72054 3.07072 2.36821 2.40586 3.16211C1.74101 3.95601 1.24771 4.87894 0.956994 5.87282C0.666283 6.86669 0.584463 7.90999 0.716685 8.93703C0.848906 9.96407 1.19231 10.9526 1.72527 11.8405L1.07527 14.048C1.03254 14.1928 1.02966 14.3465 1.06691 14.4928C1.10417 14.6392 1.18019 14.7728 1.28698 14.8796C1.39377 14.9864 1.52737 15.0624 1.67372 15.0996C1.82007 15.1369 1.97375 15.134 2.1186 15.0913L4.32694 14.4413C5.21511 14.9726 6.20414 15.3131 7.2311 15.4413C7.45046 15.4687 7.67172 15.4078 7.8462 15.2721C8.02069 15.1364 8.13411 14.9369 8.16152 14.7175C8.18892 14.4982 8.12807 14.2769 7.99234 14.1024C7.85661 13.928 7.65712 13.8145 7.43777 13.7871C6.58342 13.6808 5.76353 13.3853 5.03777 12.9221C4.89454 12.8305 4.73334 12.7706 4.56502 12.7464C4.3967 12.7223 4.22516 12.7344 4.06194 12.7821L3.10194 13.0646L3.38444 12.1046C3.48444 11.7646 3.4236 11.4096 3.24444 11.1296C2.64777 10.1945 2.33168 9.10802 2.3336 7.99879ZM15.6669 11.7488C15.6669 11.1016 15.4516 10.4728 15.0549 9.96147C14.6583 9.45009 14.1028 9.08516 13.476 8.92413C12.8492 8.7631 12.1866 8.81513 11.5926 9.07201C10.9986 9.32888 10.5069 9.77603 10.1949 10.343C9.88289 10.9101 9.76836 11.5647 9.8693 12.204C9.97024 12.8432 10.2809 13.4308 10.7524 13.8741C11.2239 14.3174 11.8295 14.5913 12.4738 14.6526C13.118 14.714 13.7644 14.5593 14.3111 14.213C14.5362 14.0698 14.8073 14.0176 15.0694 14.0671C15.0197 13.8051 15.0715 13.534 15.2144 13.3088C15.5108 12.8425 15.6678 12.3013 15.6669 11.7488ZM12.7503 7.16546C13.5466 7.1654 14.3291 7.37281 15.0209 7.76725C15.7126 8.16168 16.2897 8.72954 16.6952 9.41487C17.1007 10.1002 17.3206 10.8793 17.3334 11.6755C17.3461 12.4717 17.1511 13.2575 16.7678 13.9555L17.0894 15.048C17.132 15.1923 17.1348 15.3455 17.0976 15.4914C17.0605 15.6372 16.9847 15.7704 16.8783 15.8768C16.7718 15.9832 16.6387 16.059 16.4928 16.0962C16.347 16.1333 16.1938 16.1305 16.0494 16.088L14.9578 15.7663C14.3452 16.1026 13.6639 16.2945 12.9658 16.3271C12.2678 16.3598 11.5715 16.2324 10.9302 15.9546C10.289 15.6769 9.7197 15.2562 9.26596 14.7248C8.81222 14.1933 8.48601 13.5651 8.31228 12.8882C8.13855 12.2113 8.1219 11.5037 8.26361 10.8194C8.40531 10.1351 8.70161 9.49227 9.12986 8.94005C9.55811 8.38783 10.107 7.94084 10.7344 7.63327C11.3619 7.3257 12.0515 7.16568 12.7503 7.16546Z" fill="white" fill-opacity="0.9"/>
</svg>
