<svg width="18" height="14" viewBox="0 0 18 14" fill="none" xmlns="http://www.w3.org/2000/svg">
<path d="M14.8337 0.333984C15.4967 0.333984 16.1326 0.597377 16.6014 1.06622C17.0703 1.53506 17.3337 2.17094 17.3337 2.83398V11.1673C17.3337 11.8304 17.0703 12.4662 16.6014 12.9351C16.1326 13.4039 15.4967 13.6673 14.8337 13.6673H3.16699C2.50395 13.6673 1.86807 13.4039 1.39923 12.9351C0.930384 12.4662 0.666992 11.8304 0.666992 11.1673V2.83398C0.666992 2.17094 0.930384 1.53506 1.39923 1.06622C1.86807 0.597377 2.50395 0.333984 3.16699 0.333984H14.8337ZM15.667 5.33398H2.33366V11.1673C2.33369 11.3714 2.40862 11.5684 2.54425 11.721C2.67989 11.8735 2.86678 11.9709 3.06949 11.9948L3.16699 12.0007H14.8337C15.0378 12.0006 15.2348 11.9257 15.3873 11.7901C15.5398 11.6544 15.6373 11.4675 15.6612 11.2648L15.667 11.1673V5.33398ZM13.167 7.83398C13.3794 7.83422 13.5837 7.91555 13.7381 8.06136C13.8926 8.20717 13.9855 8.40645 13.998 8.61848C14.0104 8.83051 13.9414 9.0393 13.8051 9.20218C13.6688 9.36506 13.4754 9.46973 13.2645 9.49482L13.167 9.50065H10.667C10.4546 9.50042 10.2503 9.41909 10.0959 9.27328C9.9414 9.12747 9.84846 8.92819 9.83602 8.71616C9.82357 8.50412 9.89255 8.29533 10.0289 8.13246C10.1652 7.96958 10.3586 7.8649 10.5695 7.83982L10.667 7.83398H13.167ZM14.8337 2.00065H3.16699C2.94598 2.00065 2.73402 2.08845 2.57774 2.24473C2.42146 2.40101 2.33366 2.61297 2.33366 2.83398V3.66732H15.667V2.83398C15.667 2.61297 15.5792 2.40101 15.4229 2.24473C15.2666 2.08845 15.0547 2.00065 14.8337 2.00065Z" fill="white" fill-opacity="0.9"/>
</svg>
