<svg width="18" height="18" viewBox="0 0 18 18" fill="none" xmlns="http://www.w3.org/2000/svg">
<path fill-rule="evenodd" clip-rule="evenodd" d="M9.00033 0.666016C9.22134 0.666016 9.4333 0.753813 9.58958 0.910093C9.74586 1.06637 9.83366 1.27834 9.83366 1.49935V2.38435C10.4368 2.45925 11.0268 2.61684 11.587 2.85268L12.0287 2.08768C12.083 1.99214 12.1557 1.90829 12.2425 1.84096C12.3294 1.77362 12.4287 1.72414 12.5347 1.69534C12.6408 1.66655 12.7515 1.65901 12.8605 1.67318C12.9695 1.68735 13.0746 1.72293 13.1698 1.77788C13.2649 1.83283 13.3483 1.90606 13.4151 1.99337C13.4818 2.08067 13.5306 2.18031 13.5587 2.28656C13.5868 2.39281 13.5936 2.50357 13.5787 2.61245C13.5639 2.72134 13.5276 2.82621 13.472 2.92102L13.0295 3.68768C13.5128 4.05435 13.9445 4.48685 14.3128 4.97102L15.0795 4.52768C15.1743 4.4721 15.2792 4.43582 15.3881 4.42093C15.4969 4.40605 15.6077 4.41284 15.7139 4.44093C15.8202 4.46902 15.9198 4.51785 16.0071 4.58461C16.0944 4.65137 16.1677 4.73473 16.2226 4.82991C16.2776 4.92508 16.3132 5.03019 16.3273 5.13917C16.3415 5.24816 16.334 5.35887 16.3052 5.46493C16.2764 5.57099 16.2269 5.6703 16.1595 5.75716C16.0922 5.84402 16.0084 5.9167 15.9128 5.97102L15.1462 6.41268C15.3787 6.96352 15.5387 7.55185 15.6153 8.16602H16.5003C16.7213 8.16602 16.9333 8.25381 17.0896 8.41009C17.2459 8.56637 17.3337 8.77834 17.3337 8.99935C17.3337 9.22036 17.2459 9.43232 17.0896 9.5886C16.9333 9.74488 16.7213 9.83268 16.5003 9.83268H15.6153C15.5404 10.4358 15.3828 11.0258 15.147 11.586L15.912 12.0277C16.0075 12.082 16.0914 12.1547 16.1587 12.2415C16.226 12.3284 16.2755 12.4277 16.3043 12.5338C16.3331 12.6398 16.3407 12.7505 16.3265 12.8595C16.3123 12.9685 16.2767 13.0736 16.2218 13.1688C16.1668 13.264 16.0936 13.3473 16.0063 13.4141C15.919 13.4808 15.8194 13.5297 15.7131 13.5578C15.6069 13.5859 15.4961 13.5927 15.3872 13.5778C15.2783 13.5629 15.1735 13.5266 15.0787 13.471L14.312 13.0285C13.9444 13.5125 13.5126 13.9442 13.0287 14.3118L13.472 15.0785C13.5276 15.1733 13.5639 15.2782 13.5787 15.3871C13.5936 15.496 13.5868 15.6067 13.5587 15.713C13.5306 15.8192 13.4818 15.9189 13.4151 16.0062C13.3483 16.0935 13.2649 16.1667 13.1698 16.2217C13.0746 16.2766 12.9695 16.3122 12.8605 16.3264C12.7515 16.3405 12.6408 16.333 12.5347 16.3042C12.4287 16.2754 12.3294 16.2259 12.2425 16.1586C12.1557 16.0912 12.083 16.0074 12.0287 15.9118L11.587 15.1452C11.0269 15.3814 10.4369 15.5393 9.83366 15.6143V16.4993C9.83366 16.7204 9.74586 16.9323 9.58958 17.0886C9.4333 17.2449 9.22134 17.3327 9.00033 17.3327C8.77931 17.3327 8.56735 17.2449 8.41107 17.0886C8.25479 16.9323 8.16699 16.7204 8.16699 16.4993V15.6143C7.56383 15.5394 6.97384 15.3818 6.41366 15.146L5.97199 15.911C5.91767 16.0066 5.84499 16.0904 5.75814 16.1577C5.67128 16.2251 5.57196 16.2746 5.4659 16.3034C5.35984 16.3322 5.24913 16.3397 5.14015 16.3255C5.03117 16.3114 4.92606 16.2758 4.83089 16.2208C4.73571 16.1659 4.65234 16.0926 4.58559 16.0053C4.51883 15.918 4.47 15.8184 4.44191 15.7121C4.41382 15.6059 4.40702 15.4951 4.42191 15.3862C4.4368 15.2774 4.47308 15.1725 4.52866 15.0777L4.97116 14.311C4.4872 13.9434 4.05546 13.5116 3.68783 13.0277L2.92116 13.471C2.82635 13.5266 2.72148 13.5629 2.6126 13.5778C2.50371 13.5927 2.39295 13.5859 2.2867 13.5578C2.18045 13.5297 2.08081 13.4808 1.99351 13.4141C1.90621 13.3473 1.83297 13.264 1.77802 13.1688C1.72307 13.0736 1.68749 12.9685 1.67332 12.8595C1.65916 12.7505 1.66669 12.6398 1.69548 12.5338C1.72428 12.4277 1.77377 12.3284 1.8411 12.2415C1.90844 12.1547 1.99229 12.082 2.08783 12.0277L2.85449 11.586C2.61809 11.0259 2.45994 10.4359 2.38449 9.83268H1.50033C1.27931 9.83268 1.06735 9.74488 0.91107 9.5886C0.75479 9.43232 0.666992 9.22036 0.666992 8.99935C0.666992 8.77834 0.75479 8.56637 0.91107 8.41009C1.06735 8.25381 1.27931 8.16602 1.50033 8.16602H2.38533C2.46023 7.56285 2.61782 6.97286 2.85366 6.41268L2.08866 5.97102C1.89882 5.85972 1.76071 5.67786 1.70446 5.46511C1.64821 5.25237 1.6784 5.02601 1.78843 4.83544C1.89846 4.64486 2.0794 4.50555 2.29177 4.44789C2.50414 4.39024 2.73069 4.41892 2.92199 4.52768L3.68866 4.97018C4.05533 4.48685 4.48783 4.05518 4.97199 3.68685L4.52866 2.92018C4.41989 2.72888 4.39121 2.50233 4.44887 2.28996C4.50652 2.07759 4.64584 1.89665 4.83641 1.78662C5.02699 1.67659 5.25334 1.6464 5.46609 1.70265C5.67884 1.7589 5.8607 1.89701 5.97199 2.08685L6.41366 2.85352C6.97376 2.6171 7.56374 2.45895 8.16699 2.38352V1.49935C8.16699 1.27834 8.25479 1.06637 8.41107 0.910093C8.56735 0.753813 8.77931 0.666016 9.00033 0.666016ZM9.00033 9.96185L5.14699 12.1868C5.51975 12.6358 5.96749 13.0167 6.47033 13.3127L6.53116 13.3485C7.2836 13.7765 8.13467 14.0008 9.00033 13.9993C9.80866 13.9993 10.572 13.8077 11.2478 13.4668L11.5312 13.3127C12.0341 13.0168 12.4816 12.6355 12.8537 12.186L9.00033 9.96185ZM8.16699 4.06852C7.67315 4.15133 7.19468 4.30838 6.74783 4.53435L6.53116 4.65102L6.47033 4.68602C5.80838 5.07542 5.2445 5.61136 4.82199 6.25268L4.68699 6.46935L4.65199 6.53018C4.22374 7.28256 3.99912 8.13363 4.00033 8.99935C4.00033 9.52435 4.08116 10.0327 4.23199 10.5077L4.31283 10.7435L8.16699 8.51852V4.06852ZM9.83366 4.06852V8.51852L13.6878 10.7435C13.8952 10.1854 14.001 9.59472 14.0003 8.99935C14.0003 8.19102 13.8087 7.42768 13.4678 6.75185L13.3487 6.53018L13.322 6.48435L13.3137 6.46935C12.9242 5.80742 12.3883 5.24354 11.747 4.82102L11.4695 4.65018C11.0366 4.40389 10.5692 4.2241 10.0828 4.11685L9.83366 4.06852Z" fill="white" fill-opacity="0.9"/>
</svg>
