<svg width="18" height="18" viewBox="0 0 18 18" fill="none" xmlns="http://www.w3.org/2000/svg">
<path fill-rule="evenodd" clip-rule="evenodd" d="M8.16699 2.33268C7.83869 2.33268 7.5136 2.39735 7.21028 2.52298C6.90697 2.64862 6.63137 2.83277 6.39922 3.06492C6.16708 3.29706 5.98293 3.57266 5.85729 3.87597C5.73166 4.17929 5.66699 4.50438 5.66699 4.83268C5.66699 5.16099 5.73166 5.48608 5.85729 5.78939C5.98293 6.0927 6.16708 6.3683 6.39922 6.60045C6.63137 6.8326 6.90697 7.01674 7.21028 7.14238C7.5136 7.26802 7.83869 7.33268 8.16699 7.33268C8.83003 7.33268 9.46592 7.06929 9.93476 6.60045C10.4036 6.13161 10.667 5.49572 10.667 4.83268C10.667 4.16964 10.4036 3.53376 9.93476 3.06492C9.46592 2.59607 8.83003 2.33268 8.16699 2.33268ZM4.00033 4.83268C4.00033 3.72761 4.43931 2.66781 5.22071 1.8864C6.00212 1.105 7.06192 0.666016 8.16699 0.666016C9.27206 0.666016 10.3319 1.105 11.1133 1.8864C11.8947 2.66781 12.3337 3.72761 12.3337 4.83268C12.3337 5.93775 11.8947 6.99756 11.1133 7.77896C10.3319 8.56036 9.27206 8.99935 8.16699 8.99935C7.06192 8.99935 6.00212 8.56036 5.22071 7.77896C4.43931 6.99756 4.00033 5.93775 4.00033 4.83268ZM2.67783 13.6668C2.40866 14.0085 2.33366 14.2668 2.33366 14.416C2.33366 14.5177 2.36449 14.6252 2.54616 14.771C2.75366 14.9377 3.11449 15.1102 3.66616 15.256C4.76449 15.5477 6.34283 15.666 8.16699 15.666C8.35199 15.666 8.53449 15.6643 8.71533 15.6618C8.93634 15.6589 9.14949 15.7438 9.30788 15.898C9.46627 16.0521 9.55693 16.2629 9.55991 16.4839C9.56289 16.7049 9.47796 16.9181 9.32379 17.0765C9.16962 17.2349 8.95884 17.3255 8.73783 17.3285C8.54949 17.331 8.35866 17.3327 8.16699 17.3327C6.30949 17.3327 4.55449 17.216 3.23949 16.8677C2.58533 16.6943 1.96949 16.446 1.50283 16.071C1.00866 15.6743 0.666992 15.1202 0.666992 14.416C0.666992 13.7602 0.965326 13.1468 1.37033 12.6335C1.78199 12.1127 2.35116 11.6335 3.01866 11.2252C4.35449 10.4118 6.17116 9.83268 8.16699 9.83268C8.53949 9.83268 8.90616 9.85268 9.26366 9.89102C9.48346 9.91433 9.68499 10.024 9.82392 10.1959C9.96286 10.3678 10.0278 10.5879 10.0045 10.8077C9.98117 11.0275 9.8715 11.229 9.69959 11.3679C9.52768 11.5069 9.30762 11.5718 9.08782 11.5485C8.78782 11.516 8.47949 11.4993 8.16699 11.4993C6.48116 11.4993 4.96449 11.991 3.88699 12.6485C3.34783 12.9768 2.94033 13.3335 2.67783 13.6668ZM14.2637 10.7085C14.0927 10.6516 13.9079 10.6516 13.737 10.7085L11.237 11.5418C11.071 11.5971 10.9266 11.7033 10.8243 11.8452C10.722 11.9872 10.6669 12.1577 10.667 12.3327V13.7252C10.6669 14.6165 10.9955 15.4766 11.5899 16.1408C12.1843 16.8051 13.0028 17.2267 13.8887 17.3252C13.9637 17.3335 14.0378 17.3335 14.112 17.3252C14.9979 17.2267 15.8164 16.8051 16.4108 16.1408C17.0052 15.4766 17.3338 14.6165 17.3337 13.7252V12.3327C17.3337 12.1577 17.2787 11.9872 17.1764 11.8452C17.0741 11.7033 16.9297 11.5971 16.7637 11.5418L14.2637 10.7085ZM12.3337 13.7252V12.9335L14.0003 12.3777L15.667 12.9335V13.7252C15.667 14.6977 14.9545 15.5168 14.0003 15.6593C13.537 15.5903 13.1138 15.3571 12.8079 15.0022C12.502 14.6474 12.3337 14.1945 12.3337 13.726V13.7252Z" fill="white" fill-opacity="0.9"/>
</svg>
