<svg width="16" height="16" viewBox="0 0 16 16" fill="none" xmlns="http://www.w3.org/2000/svg">
<path fill-rule="evenodd" clip-rule="evenodd" d="M3 1.33333C3 1.11232 3.0878 0.900358 3.24408 0.744078C3.40036 0.587797 3.61232 0.5 3.83333 0.5H14.6667C14.8877 0.5 15.0996 0.587797 15.2559 0.744078C15.4122 0.900358 15.5 1.11232 15.5 1.33333V13C15.5 13.663 15.2366 14.2989 14.7678 14.7678C14.2989 15.2366 13.663 15.5 13 15.5H2.58333C2.0308 15.5 1.50089 15.2805 1.11019 14.8898C0.719493 14.4991 0.5 13.9692 0.5 13.4167V7.16667C0.5 6.94565 0.587797 6.73369 0.744078 6.57741C0.900358 6.42113 1.11232 6.33333 1.33333 6.33333H3V1.33333ZM3 8H2.16667V13.4167C2.16667 13.5272 2.21057 13.6332 2.28871 13.7113C2.36685 13.7894 2.47283 13.8333 2.58333 13.8333C2.69384 13.8333 2.79982 13.7894 2.87796 13.7113C2.9561 13.6332 3 13.5272 3 13.4167V8ZM4.625 13.8333H13C13.221 13.8333 13.433 13.7455 13.5893 13.5893C13.7455 13.433 13.8333 13.221 13.8333 13V2.16667H4.66667V13.4167C4.66667 13.5592 4.6525 13.6983 4.625 13.8333ZM6.33333 4.66667C6.33333 4.44565 6.42113 4.23369 6.57741 4.07741C6.73369 3.92113 6.94565 3.83333 7.16667 3.83333H11.3333C11.5543 3.83333 11.7663 3.92113 11.9226 4.07741C12.0789 4.23369 12.1667 4.44565 12.1667 4.66667V7.16667C12.1667 7.38768 12.0789 7.59964 11.9226 7.75592C11.7663 7.9122 11.5543 8 11.3333 8H7.16667C6.94565 8 6.73369 7.9122 6.57741 7.75592C6.42113 7.59964 6.33333 7.38768 6.33333 7.16667V4.66667ZM8 5.5V6.33333H10.5V5.5H8ZM6.33333 10.5C6.33333 10.279 6.42113 10.067 6.57741 9.91074C6.73369 9.75446 6.94565 9.66667 7.16667 9.66667H10.5C10.721 9.66667 10.933 9.75446 11.0893 9.91074C11.2455 10.067 11.3333 10.279 11.3333 10.5C11.3333 10.721 11.2455 10.933 11.0893 11.0893C10.933 11.2455 10.721 11.3333 10.5 11.3333H7.16667C6.94565 11.3333 6.73369 11.2455 6.57741 11.0893C6.42113 10.933 6.33333 10.721 6.33333 10.5Z" fill="white" fill-opacity="0.9"/>
</svg>
